<svg xmlns="http://www.w3.org/2000/svg" aria-hidden="true" overflow="hidden" style="width:0;height:0;position:absolute"><defs><symbol id="settings" viewBox="0 0 50 50"><path d="m47.16 21.221-5.91-.966a16.933 16.933 0 0 0-1.411-3.405l3.45-4.917a1.001 1.001 0 0 0-.112-1.282l-3.889-3.887a1 1 0 0 0-1.291-.104l-4.843 3.481a16.774 16.774 0 0 0-3.432-1.427l-1.031-5.886A1 1 0 0 0 27.706 2h-5.5a1 1 0 0 0-.987.839l-.956 5.854c-1.2.345-2.352.818-3.437 1.412l-4.83-3.45a1 1 0 0 0-1.289.106L6.82 10.648a.998.998 0 0 0-.112 1.28l3.399 4.863a16.937 16.937 0 0 0-1.438 3.46l-5.831.971a1 1 0 0 0-.836.986v5.5a1 1 0 0 0 .825.985l5.831 1.034a16.853 16.853 0 0 0 1.438 3.46L6.655 38c-.284.397-.239.942.106 1.289l3.888 3.891a1 1 0 0 0 1.281.112l4.87-3.411a16.871 16.871 0 0 0 3.445 1.424l.976 5.861a.997.997 0 0 0 .985.834h5.5c.485 0 .9-.348.984-.825l1.045-5.89a16.816 16.816 0 0 0 3.43-1.435l4.905 3.441a.999.999 0 0 0 1.282-.111l3.888-3.891a1 1 0 0 0 .104-1.292l-3.498-4.857a16.74 16.74 0 0 0 1.407-3.408l5.918-1.039a1 1 0 0 0 .827-.985v-5.5a.998.998 0 0 0-.838-.987zM25 32a7 7 0 1 1 0-14 7 7 0 0 1 0 14z"/></symbol><symbol id="bg-prev" viewBox="0 0 24 24"><path d="M14.91 6.71a.996.996 0 0 0-1.41 0L8.91 11.3a.996.996 0 0 0 0 1.41l4.59 4.59a.996.996 0 1 0 1.41-1.41L11.03 12l3.88-3.88c.38-.39.38-1.03 0-1.41Z"/></symbol><symbol id="bg-next" viewBox="0 0 24 24"><path d="M9.31 6.71a.996.996 0 0 0 0 1.41L13.19 12l-3.88 3.88a.996.996 0 1 0 1.41 1.41l4.59-4.59a.996.996 0 0 0 0-1.41L10.72 6.7c-.38-.38-1.02-.38-1.41.01Z"/></symbol><symbol id="repeat" viewBox="0 0 24 24"><path d="M7 7h10v1.79c0 .45.54.67.85.35l2.79-2.79c.2-.2.2-.51 0-.71l-2.79-2.79a.5.5 0 0 0-.85.36V5H6c-.55 0-1 .45-1 1v4c0 .55.45 1 1 1s1-.45 1-1V7Zm10 10H7v-1.79c0-.45-.54-.67-.85-.35l-2.79 2.79c-.2.2-.2.51 0 .71l2.79 2.79a.5.5 0 0 0 .85-.36V19h11c.55 0 1-.45 1-1v-4c0-.55-.45-1-1-1s-1 .45-1 1v3Z"/></symbol><symbol id="play" viewBox="0 0 24 24"><path d="M7 6.82v10.36c0 .79.87 1.27 1.54.84l8.14-5.18a1 1 0 0 0 0-1.69L8.54 5.98A.998.998 0 0 0 7 6.82Z"/></symbol><symbol id="pause" viewBox="0 0 24 24"><path d="M8 19c1.1 0 2-.9 2-2V7c0-1.1-.9-2-2-2s-2 .9-2 2v10c0 1.1.9 2 2 2Zm6-12v10c0 1.1.9 2 2 2s2-.9 2-2V7c0-1.1-.9-2-2-2s-2 .9-2 2Z"/></symbol><symbol id="play-prev" viewBox="0 0 24 24"><path d="M11 16.07V7.93c0-.81-.91-1.28-1.58-.82l-5.77 4.07c-.56.4-.56 1.24 0 1.63l5.77 4.07c.67.47 1.58 0 1.58-.81Zm1.66-3.25 5.77 4.07c.66.47 1.58-.01 1.58-.82V7.93c0-.81-.91-1.28-1.58-.82l-5.77 4.07a1 1 0 0 0 0 1.64Z"/></symbol><symbol id="play-next" viewBox="0 0 24 24"><path d="m5.58 16.89 5.77-4.07c.56-.4.56-1.24 0-1.63L5.58 7.11C4.91 6.65 4 7.12 4 7.93v8.14c0 .81.91 1.28 1.58.82ZM13 7.93v8.14c0 .81.91 1.28 1.58.82l5.77-4.07c.56-.4.56-1.24 0-1.63l-5.77-4.07c-.67-.47-1.58 0-1.58.81Z"/></symbol><symbol id="song" viewBox="0 0 24 24"><path d="M21 3H3c-1.1 0-2 .9-2 2v14c0 1.1.9 2 2 2h18c1.1 0 2-.9 2-2V5c0-1.1-.9-2-2-2Zm-1 16H4c-.55 0-1-.45-1-1V6c0-.55.45-1 1-1h16c.55 0 1 .45 1 1v12c0 .55-.45 1-1 1ZM8.05 15.54A2.995 2.995 0 0 1 11 12c.35 0 .69.07 1 .18V8c0-1.1.9-2 2-2h2c.55 0 1 .45 1 1s-.45 1-1 1h-2v7.03a3.001 3.001 0 0 1-3.55 2.92c-1.21-.21-2.2-1.2-2.4-2.41Z"/></symbol><symbol id="mid-volume" viewBox="0 0 24 24"><path d="M18.5 12A4.5 4.5 0 0 0 16 7.97v8.05c1.48-.73 2.5-2.25 2.5-4.02ZM5 10v4c0 .55.45 1 1 1h3l3.29 3.29c.63.63 1.71.18 1.71-.71V6.41c0-.89-1.08-1.34-1.71-.71L9 9H6c-.55 0-1 .45-1 1Z"/></symbol><symbol id="low-volume" viewBox="0 0 24 24"><path d="M8 10v4c0 .55.45 1 1 1h3l3.29 3.29c.63.63 1.71.18 1.71-.71V6.41c0-.89-1.08-1.34-1.71-.71L12 9H9c-.55 0-1 .45-1 1Z"/></symbol><symbol id="high-volume" viewBox="0 0 24 24"><path d="M3 10v4c0 .55.45 1 1 1h3l3.29 3.29c.63.63 1.71.18 1.71-.71V6.41c0-.89-1.08-1.34-1.71-.71L7 9H4c-.55 0-1 .45-1 1Zm13.5 2A4.5 4.5 0 0 0 14 7.97v8.05c1.48-.73 2.5-2.25 2.5-4.02ZM14 4.45v.2c0 .38.25.71.6.85A7.004 7.004 0 0 1 19 12c0 2.94-1.82 5.47-4.4 6.5-.36.14-.6.47-.6.85v.2c0 .63.63 1.07 1.21.85A8.98 8.98 0 0 0 21 12c0-3.84-2.4-7.11-5.79-8.4-.58-.23-1.21.22-1.21.85Z"/></symbol><symbol id="mute-volume" viewBox="0 0 24 24"><path d="M3.63 3.63a.996.996 0 0 0 0 1.41L7.29 8.7 7 9H4c-.55 0-1 .45-1 1v4c0 .55.45 1 1 1h3l3.29 3.29c.63.63 1.71.18 1.71-.71v-4.17l4.18 4.18c-.49.37-1.02.68-1.6.91-.36.15-.58.53-.58.92 0 .72.73 1.18 1.39.91.8-.33 1.55-.77 2.22-1.31l1.34 1.34a.996.996 0 1 0 1.41-1.41L5.05 3.63c-.39-.39-1.02-.39-1.42 0ZM19 12c0 .82-.15 1.61-.41 2.34l1.53 1.53c.56-1.17.88-2.48.88-3.87 0-3.83-2.4-7.11-5.78-8.4-.59-.23-1.22.23-1.22.86v.19c0 .38.25.71.61.85C17.18 6.54 19 9.06 19 12Zm-8.71-6.29-.17.17L12 7.76V6.41c0-.89-1.08-1.33-1.71-.7ZM16.5 12A4.5 4.5 0 0 0 14 7.97v1.79l2.48 2.48c.01-.08.02-.16.02-.24Z"/></symbol></defs></svg>