<svg xmlns="http://www.w3.org/2000/svg" aria-hidden="true" style="position:absolute;width:0;height:0;overflow:hidden">
  <defs>
    <symbol id="icon-twitter" viewBox="0 0 32 32">
      <path d="M31.493 6.516a12.319 12.319 0 0 1-3.53.967 6.164 6.164 0 0 0 2.703-3.402 12.253 12.253 0 0 1-3.904 1.491 6.154 6.154 0 0 0-10.094 1.672 6.15 6.15 0 0 0-.383 3.937A17.457 17.457 0 0 1 3.613 4.756a6.144 6.144 0 0 0-.831 3.091 6.148 6.148 0 0 0 2.735 5.118 6.142 6.142 0 0 1-2.785-.769v.079a6.151 6.151 0 0 0 4.932 6.029 6.19 6.19 0 0 1-2.777.105 6.149 6.149 0 0 0 5.743 4.268 12.335 12.335 0 0 1-7.636 2.633c-.49 0-.98-.029-1.468-.086a17.384 17.384 0 0 0 9.423 2.762c11.31 0 17.493-9.368 17.493-17.492 0-.264-.007-.531-.018-.795a12.497 12.497 0 0 0 3.066-3.181l.003-.004z"/>
    </symbol>
    <symbol id="icon-youtube" viewBox="0 0 24 24">
      <path d="M23.498 6.186a3.016 3.016 0 0 0-2.122-2.136C19.505 3.545 12 3.545 12 3.545s-7.505 0-9.377.505A3.017 3.017 0 0 0 .502 6.186C0 8.07 0 12 0 12s0 3.93.502 5.814a3.016 3.016 0 0 0 2.122 2.136c1.871.505 9.376.505 9.376.505s7.505 0 9.377-.505a3.015 3.015 0 0 0 2.122-2.136C24 15.93 24 12 24 12s0-3.93-.502-5.814zM9.545 15.568V8.432L15.818 12l-6.273 3.568z"/>
    </symbol>
    <symbol id="icon-instagram" viewBox="0 0 32 32">
      <path d="M9.852 1.407c1.548-.071 2.042-.087 5.985-.087s4.437.017 5.984.087c1.547.07 2.603.317 3.526.674a7.153 7.153 0 0 1 2.571 1.676 7.09 7.09 0 0 1 1.673 2.57c.359.924.604 1.98.676 3.524.071 1.551.087 2.044.087 5.986 0 3.943-.017 4.437-.087 5.985-.07 1.544-.317 2.6-.676 3.524a7.11 7.11 0 0 1-1.673 2.572 7.135 7.135 0 0 1-2.571 1.674c-.924.359-1.98.604-3.524.676-1.549.071-2.043.087-5.986.087s-4.437-.017-5.985-.087c-1.544-.07-2.6-.317-3.524-.676a7.1 7.1 0 0 1-2.572-1.674 7.112 7.112 0 0 1-1.675-2.571c-.358-.924-.603-1.98-.674-3.524-.071-1.551-.087-2.044-.087-5.986 0-3.943.017-4.437.087-5.984s.317-2.603.674-3.526a7.115 7.115 0 0 1 1.676-2.571 7.121 7.121 0 0 1 2.57-1.675c.924-.358 1.98-.603 3.524-.674h.001zM21.704 4.02c-1.531-.07-1.99-.084-5.866-.084s-4.335.014-5.866.084c-1.416.065-2.184.301-2.696.5a4.52 4.52 0 0 0-1.67 1.085 4.506 4.506 0 0 0-1.085 1.67c-.199.512-.436 1.28-.5 2.696-.07 1.531-.084 1.99-.084 5.866s.014 4.335.084 5.866c.065 1.416.301 2.184.5 2.696a4.498 4.498 0 0 0 1.085 1.669c.469.482 1.04.853 1.67 1.085.512.199 1.28.436 2.696.5 1.531.07 1.989.084 5.866.084s4.335-.015 5.866-.084c1.416-.065 2.184-.301 2.696-.5a4.508 4.508 0 0 0 1.669-1.085 4.506 4.506 0 0 0 1.085-1.669c.199-.512.435-1.28.5-2.696.07-1.531.085-1.99.085-5.866s-.015-4.335-.085-5.866c-.065-1.416-.301-2.184-.5-2.696a4.52 4.52 0 0 0-1.085-1.67A4.51 4.51 0 0 0 24.4 4.52c-.512-.199-1.28-.436-2.696-.5zm-7.721 16.293a4.846 4.846 0 0 0 5.887-1.78 4.846 4.846 0 0 0-2.401-7.255 4.832 4.832 0 0 0-4.121.407 4.849 4.849 0 0 0-2.301 3.443 4.84 4.84 0 0 0 1.202 3.963 4.85 4.85 0 0 0 1.735 1.223zm-3.422-9.752a7.456 7.456 0 0 1 8.133-1.618 7.456 7.456 0 0 1 4.038 4.039 7.466 7.466 0 0 1-1.617 8.133 7.462 7.462 0 1 1-10.552-10.552zm14.393-1.074a1.76 1.76 0 0 0 .553-1.258 1.768 1.768 0 0 0-.516-1.273 1.758 1.758 0 0 0-1.273-.516 1.758 1.758 0 0 0-1.258.553 1.763 1.763 0 0 0 .036 2.459 1.765 1.765 0 0 0 2.459.036z"/>
    </symbol>
    <symbol id="icon-arrow" viewBox="0 0 36 23">
      <path fill-rule="evenodd" clip-rule="evenodd" d="M0.5 11.5C0.5 11.1685 0.631696 10.8505 0.866116 10.6161C1.10054 10.3817 1.41848 10.25 1.75 10.25H31.2325L23.365 2.38499C23.1303 2.15028 22.9984 1.83193 22.9984 1.49999C22.9984 1.16805 23.1303 0.849708 23.365 0.614992C23.5997 0.380275 23.9181 0.248413 24.25 0.248413C24.5819 0.248413 24.9003 0.380275 25.135 0.614992L35.135 10.615C35.2514 10.7311 35.3438 10.869 35.4068 11.0209C35.4698 11.1728 35.5022 11.3356 35.5022 11.5C35.5022 11.6644 35.4698 11.8272 35.4068 11.9791C35.3438 12.1309 35.2514 12.2689 35.135 12.385L25.135 22.385C24.9003 22.6197 24.5819 22.7516 24.25 22.7516C23.9181 22.7516 23.5997 22.6197 23.365 22.385C23.1303 22.1503 22.9984 21.8319 22.9984 21.5C22.9984 21.1681 23.1303 20.8497 23.365 20.615L31.2325 12.75H1.75C1.41848 12.75 1.10054 12.6183 0.866116 12.3839C0.631696 12.1495 0.5 11.8315 0.5 11.5V11.5Z"/>
    </symbol>
    <symbol id="icon-circle" viewBox="0 0 32 32">
      <path d="M32 16c0 8.837-7.163 16-16 16S0 24.837 0 16 7.163 0 16 0s16 7.163 16 16z"/>
    </symbol>
    <symbol id="icon-airplane" viewBox="0 0 40 40">
      <path d="M35.954 33.636c0 .362-.142.709-.395.965a1.344 1.344 0 0 1-.954.399H10.327c-.358 0-.701-.144-.954-.399a1.373 1.373 0 0 1 0-1.929 1.34 1.34 0 0 1 .954-.399h24.278c.358 0 .701.143.954.399s.395.603.395.964ZM40 20v4.091c0 .362-.142.708-.395.964s-.596.4-.954.4H8.944a6.664 6.664 0 0 1-4.029-1.342 6.788 6.788 0 0 1-2.428-3.516L.11 12.602a2.81 2.81 0 0 1 .421-2.42 2.74 2.74 0 0 1 .961-.803 2.7 2.7 0 0 1 1.214-.288h2.9a1.317 1.317 0 0 1 1.029.494l2.967 3.597h2.9l-1.517-4.585a2.753 2.753 0 0 1 .368-2.464A2.677 2.677 0 0 1 13.547 5h2.849a1.329 1.329 0 0 1 .995.443l7.014 7.739h8.851c1.789 0 3.504.718 4.769 1.997A6.86 6.86 0 0 1 40 20Zm-2.698 0a4.13 4.13 0 0 0-1.19-2.888 4.041 4.041 0 0 0-2.856-1.203h-9.441a1.32 1.32 0 0 1-.995-.443l-7.014-7.739h-2.259l2.108 6.392a1.399 1.399 0 0 1-.186 1.228 1.337 1.337 0 0 1-1.096.562H8.978a1.32 1.32 0 0 1-1.028-.494l-2.968-3.597H2.69l2.377 7.995a4.073 4.073 0 0 0 1.459 2.11 3.995 3.995 0 0 0 2.418.804h28.358V20Z"/>
    </symbol>
    <symbol id="icon-bike" viewBox="0 0 40 40">
       <path d="M9.792 33.228a5.012 5.012 0 0 1-3.61-1.552 5.405 5.405 0 0 1-1.494-3.748c0-1.406.537-2.754 1.494-3.748a5.013 5.013 0 0 1 3.61-1.553c1.353 0 2.652.559 3.609 1.553a5.406 5.406 0 0 1 1.495 3.748 5.406 5.406 0 0 1-1.495 3.748 5.01 5.01 0 0 1-3.609 1.552Zm0-12.872a7.157 7.157 0 0 0-5.156 2.218A7.72 7.72 0 0 0 2.5 27.928a7.72 7.72 0 0 0 2.136 5.354A7.157 7.157 0 0 0 9.792 35.5c1.934 0 3.788-.798 5.156-2.218a7.723 7.723 0 0 0 2.135-5.354 7.723 7.723 0 0 0-2.135-5.354c-1.368-1.42-3.222-2.218-5.156-2.218Zm14.291-3.029h6.125v-2.726h-4.666l-2.83-4.952a2.475 2.475 0 0 0-2.129-1.257c-.685 0-1.312.288-1.75.757l-5.395 5.588a2.558 2.558 0 0 0-.73 1.833c0 .954.482 1.756 1.24 2.226l4.885 3.074v7.572h2.625v-9.843L18.177 17.1l3.383-3.559 2.523 3.786Zm6.125 15.901a5.01 5.01 0 0 1-3.609-1.552 5.406 5.406 0 0 1-1.495-3.748c0-1.406.538-2.754 1.495-3.748a5.011 5.011 0 0 1 3.609-1.553c1.354 0 2.652.559 3.61 1.553a5.406 5.406 0 0 1 1.495 3.748 5.406 5.406 0 0 1-1.495 3.748 5.012 5.012 0 0 1-3.61 1.552Zm0-12.872c-1.933 0-3.788.798-5.156 2.218a7.723 7.723 0 0 0-2.135 5.354c0 2.008.768 3.934 2.135 5.354 1.368 1.42 3.223 2.218 5.156 2.218a7.07 7.07 0 0 0 2.791-.576 7.294 7.294 0 0 0 2.365-1.642 7.597 7.597 0 0 0 1.581-2.456 7.839 7.839 0 0 0 0-5.796 7.597 7.597 0 0 0-1.581-2.456 7.294 7.294 0 0 0-2.365-1.642 7.07 7.07 0 0 0-2.791-.576ZM25.833 9.452c1.459 0 2.625-1.212 2.625-2.726S27.292 4 25.833 4c-1.458 0-2.625 1.212-2.625 2.726s1.167 2.726 2.625 2.726Z"/>
    </symbol>
    <symbol id="icon-calendar" viewBox="0 0 40 40">
      <path d="M11.736 21.944a2.43 2.43 0 1 0 .001-4.86 2.43 2.43 0 0 0-.001 4.86Zm10.695-2.43c0 .645-.257 1.263-.712 1.719a2.434 2.434 0 0 1-3.438 0 2.435 2.435 0 0 1 0-3.438 2.43 2.43 0 0 1 4.15 1.719Zm5.833 2.43c.645 0 1.263-.256 1.719-.711a2.434 2.434 0 0 0 0-3.438 2.43 2.43 0 1 0-1.719 4.149Zm-14.097 5.348a2.428 2.428 0 0 1-2.431 2.43 2.43 2.43 0 1 1 2.431-2.43ZM20 29.722a2.43 2.43 0 1 0 0-4.86 2.43 2.43 0 0 0 0 4.86ZM2.5 8.576A6.073 6.073 0 0 1 8.576 2.5h22.848A6.073 6.073 0 0 1 37.5 8.576v22.848a6.073 6.073 0 0 1-6.076 6.076H8.576A6.073 6.073 0 0 1 2.5 31.424V8.576Zm6.076-3.645c-.967 0-1.894.384-2.578 1.067a3.648 3.648 0 0 0-1.067 2.578v1.702h30.138V8.576c0-.967-.384-1.894-1.067-2.578a3.648 3.648 0 0 0-2.578-1.067H8.576ZM4.931 31.424c0 .967.384 1.894 1.067 2.578a3.648 3.648 0 0 0 2.578 1.067h22.848c.967 0 1.894-.384 2.578-1.067a3.648 3.648 0 0 0 1.067-2.578V12.708H4.931v18.716Z"/>
    </symbol>
    <symbol id="icon-logo" viewBox="0 0 32 32">
      <path d="M2.764 8.355c.258-.328.598-.772.87-1.089.815-.875.92-.989 1.662-1.636.22-.171.481-.376.736-.569-1.882 1.507-2.121 3.175-.395 4.205-.003 0-.003 0-.003.003 2.414 1.376 7.706 1.079 11.881-.684 4.044-1.707 5.537-4.148 3.541-5.599-1.752-.311-3.841-.347-6.051-.067l-.23-.359.19-.595c1.3-.111 2.534-.084 3.6.088.258.041.598.112.851.163.491.113.757.181 1.077.279.327.092.606.184 1.092.355.476.177.682.257 1.064.437.428.185.843.393 1.245.625 3.18 1.892 1.202 5.344-4.409 7.709-5.596 2.357-12.726 2.728-15.922.859-.001-.003-.006-.005-.014-.008h.006c-1.745-1.045-1.928-2.563-.791-4.117zm14.559 13.226-.045-2.125-1.597-1.68c-5.276 1.131-10.461.888-13.345-.719-.01-.011-.034-.021-.044-.032C.66 16.074.257 14.848.379 13.514c-.382 1.951-.413 2.655-.358 4.324.068 1.045.706 2.009 1.99 2.769l.01.011c3.074 1.808 9.479 2.2 15.302.963zm6.66 2.434c-7.446 2.825-16.766 2.992-20.814.377a10.788 10.788 0 0 0 1.765 2.797c3.715 2.4 12.27 2.247 19.102-.347 3.999-1.516 6.522-3.533 7.184-5.424l.186-.569c.441-1.443.524-2.644.595-3.713-.08 2.321-2.971 4.961-8.017 6.879zM7.545 29.456c.234.211.97 1.065 4.698 2.009 1.008.211 3.545.887 8.232-.096l.028-.404-.371-.549c-4.348.973-9.179.648-12.587-.96zm10.76-16.812 3.959 2.839s.847.577.048.983c-.796.401-2.842 1.384-2.842 1.384l-2.02-.713-1.013.427 1.787 1.468.014 2.284 1.05-.441.696-1.929s2.138-.779 2.987-1.072c.853-.287.739.695.739.695l-.42 4.681 1.395-.587 2.297-6.316s1.218-.56 2.075-1.052c.856-.492 1.149-1.308 1.149-1.308s-.834-.34-1.796-.067c-.961.271-2.214.753-2.214.753l-6.501-2.612-1.391.584zM9.928 3.663l2.688 2.025.734-.104-1.463-1.817s-.319-.376.11-.465c.431-.091 1.522-.301 1.522-.301l.82.62.553-.077-.626-.941.33-1.044-.534.073-.633.795s-1.111.099-1.548.133c-.44.032-.251-.415-.251-.415l.843-2.144-.739.103-1.945 2.679s-.648.112-1.118.239c-.471.125-.719.469-.719.469s.345.264.832.255c.491-.009 1.143-.081 1.143-.081zm13.285 26.024-1.739-.86-.4.132 1.03.872s.22.177-.011.272c-.231.093-.82.323-.82.323l-.486-.205-.289.099.405.408-.039.596.302-.099.226-.484s.612-.172.856-.233c.242-.063.187.207.187.207l-.23 1.287.402-.132.788-1.701s.348-.129.598-.248.348-.337.348-.337-.221-.115-.495-.057c-.275.055-.63.163-.63.163z"/>
    </symbol>
    <symbol id="icon-burger" viewBox="0 0 35 32">
      <path d="M29.2396 14.6667H5.76042C4.99527 14.6667 4.375 15.2338 4.375 15.9333V16.0667C4.375 16.7662 4.99527 17.3333 5.76042 17.3333H29.2396C30.0047 17.3333 30.625 16.7662 30.625 16.0667V15.9333C30.625 15.2338 30.0047 14.6667 29.2396 14.6667Z" />
      <path d="M29.2396 21.3333H5.76042C4.99527 21.3333 4.375 21.9004 4.375 22.6V22.7333C4.375 23.4329 4.99527 24 5.76042 24H29.2396C30.0047 24 30.625 23.4329 30.625 22.7333V22.6C30.625 21.9004 30.0047 21.3333 29.2396 21.3333Z" />
      <path d="M29.2396 8H5.76042C4.99527 8 4.375 8.56711 4.375 9.26667V9.4C4.375 10.0996 4.99527 10.6667 5.76042 10.6667H29.2396C30.0047 10.6667 30.625 10.0996 30.625 9.4V9.26667C30.625 8.56711 30.0047 8 29.2396 8Z" />
    </symbol>
    <symbol id="icon-close" viewBox="0 0 16 16">
      <path d="M9.17506 8L15.2501 1.925C15.3866 1.76559 15.4579 1.56052 15.4498 1.35079C15.4417 1.14106 15.3548 0.942114 15.2064 0.793702C15.058 0.64529 14.859 0.558345 14.6493 0.550244C14.4395 0.542144 14.2345 0.613482 14.0751 0.750004L8.00006 6.825L1.92506 0.741671C1.76564 0.605149 1.56058 0.533811 1.35085 0.541912C1.14112 0.550013 0.942169 0.636956 0.793757 0.785368C0.645345 0.93378 0.558401 1.13273 0.5503 1.34246C0.542199 1.55219 0.613538 1.75725 0.75006 1.91667L6.82506 8L0.741726 14.075C0.654491 14.1497 0.583641 14.2416 0.533622 14.345C0.483602 14.4484 0.455493 14.561 0.45106 14.6758C0.446628 14.7906 0.465966 14.905 0.507861 15.0119C0.549757 15.1189 0.613305 15.216 0.694518 15.2972C0.77573 15.3784 0.872853 15.442 0.97979 15.4839C1.08673 15.5258 1.20117 15.5451 1.31594 15.5407C1.4307 15.5362 1.54331 15.5081 1.6467 15.4581C1.75009 15.4081 1.84202 15.3372 1.91673 15.25L8.00006 9.175L14.0751 15.25C14.2345 15.3865 14.4395 15.4579 14.6493 15.4498C14.859 15.4417 15.058 15.3547 15.2064 15.2063C15.3548 15.0579 15.4417 14.8589 15.4498 14.6492C15.4579 14.4395 15.3866 14.2344 15.2501 14.075L9.17506 8Z" />
    </symbol>
    <symbol id="icon-prev" viewBox="0 0 32 32">
      <path d="M20.0757 26.9325C20.4272 26.5809 20.6246 26.1041 20.6246 25.6069C20.6246 25.1097 20.4272 24.6329 20.0757 24.2813L10.7944 15L20.0757 5.71875C20.4172 5.36512 20.6062 4.89149 20.6019 4.39987C20.5976 3.90825 20.4005 3.43798 20.0528 3.09034C19.7052 2.7427 19.2349 2.54551 18.7433 2.54124C18.2517 2.53696 17.778 2.72595 17.4244 3.0675L6.81753 13.6744C6.46602 14.026 6.26855 14.5028 6.26855 15C6.26855 15.4972 6.46602 15.974 6.81753 16.3256L17.4244 26.9325C17.776 27.284 18.2528 27.4815 18.75 27.4815C19.2472 27.4815 19.724 27.284 20.0757 26.9325Z" />
    </symbol>
    <symbol id="icon-next" viewBox="0 0 32 32">
      <path d="M9.92435 3.0675C9.57284 3.41911 9.37537 3.89594 9.37537 4.39312C9.37537 4.89031 9.57284 5.36713 9.92435 5.71875L19.2056 15L9.92435 24.2812C9.5828 24.6349 9.39381 25.1085 9.39808 25.6001C9.40235 26.0917 9.59955 26.562 9.94719 26.9097C10.2948 27.2573 10.7651 27.4545 11.2567 27.4588C11.7483 27.463 12.222 27.274 12.5756 26.9325L23.1825 16.3256C23.534 15.974 23.7314 15.4972 23.7314 15C23.7314 14.5028 23.534 14.026 23.1825 13.6744L12.5756 3.0675C12.224 2.71599 11.7472 2.51852 11.25 2.51852C10.7528 2.51852 10.276 2.71599 9.92435 3.0675Z" />
    </symbol>
  </defs>
</svg>
