<svg xmlns="http://www.w3.org/2000/svg" aria-hidden="true" style="position:absolute;width:0;height:0;overflow:hidden">
  <defs>
    <symbol id="icon-twitter" viewBox="0 0 32 32">
      <path d="M31.493 6.516a12.319 12.319 0 0 1-3.53.967 6.164 6.164 0 0 0 2.703-3.402 12.253 12.253 0 0 1-3.904 1.491 6.154 6.154 0 0 0-10.094 1.672 6.15 6.15 0 0 0-.383 3.937A17.457 17.457 0 0 1 3.613 4.756a6.144 6.144 0 0 0-.831 3.091 6.148 6.148 0 0 0 2.735 5.118 6.142 6.142 0 0 1-2.785-.769v.079a6.151 6.151 0 0 0 4.932 6.029 6.19 6.19 0 0 1-2.777.105 6.149 6.149 0 0 0 5.743 4.268 12.335 12.335 0 0 1-7.636 2.633c-.49 0-.98-.029-1.468-.086a17.384 17.384 0 0 0 9.423 2.762c11.31 0 17.493-9.368 17.493-17.492 0-.264-.007-.531-.018-.795a12.497 12.497 0 0 0 3.066-3.181l.003-.004z"/>
    </symbol>
    <symbol id="icon-youtube" viewBox="0 0 32 32">
      <path stroke-linecap="round" stroke-linejoin="round" stroke-width="3.922" d="M24.371 5.279H8.534a5.279 5.279 0 0 0-5.279 5.279v10.558a5.28 5.28 0 0 0 5.279 5.279h15.837a5.279 5.279 0 0 0 5.279-5.279V10.558a5.278 5.278 0 0 0-5.279-5.279z"/>
      <path stroke-linecap="round" stroke-linejoin="round" stroke-width="3.922" d="m20.412 15.837-6.599-3.959v7.919l6.599-3.959z"/>
    </symbol>
    <symbol id="icon-instagram" viewBox="0 0 32 32">
      <path d="M9.852 1.407c1.548-.071 2.042-.087 5.985-.087s4.437.017 5.984.087c1.547.07 2.603.317 3.526.674a7.153 7.153 0 0 1 2.571 1.676 7.09 7.09 0 0 1 1.673 2.57c.359.924.604 1.98.676 3.524.071 1.551.087 2.044.087 5.986 0 3.943-.017 4.437-.087 5.985-.07 1.544-.317 2.6-.676 3.524a7.11 7.11 0 0 1-1.673 2.572 7.135 7.135 0 0 1-2.571 1.674c-.924.359-1.98.604-3.524.676-1.549.071-2.043.087-5.986.087s-4.437-.017-5.985-.087c-1.544-.07-2.6-.317-3.524-.676a7.1 7.1 0 0 1-2.572-1.674 7.112 7.112 0 0 1-1.675-2.571c-.358-.924-.603-1.98-.674-3.524-.071-1.551-.087-2.044-.087-5.986 0-3.943.017-4.437.087-5.984s.317-2.603.674-3.526a7.115 7.115 0 0 1 1.676-2.571 7.121 7.121 0 0 1 2.57-1.675c.924-.358 1.98-.603 3.524-.674h.001zM21.704 4.02c-1.531-.07-1.99-.084-5.866-.084s-4.335.014-5.866.084c-1.416.065-2.184.301-2.696.5a4.52 4.52 0 0 0-1.67 1.085 4.506 4.506 0 0 0-1.085 1.67c-.199.512-.436 1.28-.5 2.696-.07 1.531-.084 1.99-.084 5.866s.014 4.335.084 5.866c.065 1.416.301 2.184.5 2.696a4.498 4.498 0 0 0 1.085 1.669c.469.482 1.04.853 1.67 1.085.512.199 1.28.436 2.696.5 1.531.07 1.989.084 5.866.084s4.335-.015 5.866-.084c1.416-.065 2.184-.301 2.696-.5a4.508 4.508 0 0 0 1.669-1.085 4.506 4.506 0 0 0 1.085-1.669c.199-.512.435-1.28.5-2.696.07-1.531.085-1.99.085-5.866s-.015-4.335-.085-5.866c-.065-1.416-.301-2.184-.5-2.696a4.52 4.52 0 0 0-1.085-1.67A4.51 4.51 0 0 0 24.4 4.52c-.512-.199-1.28-.436-2.696-.5zm-7.721 16.293a4.846 4.846 0 0 0 5.887-1.78 4.846 4.846 0 0 0-2.401-7.255 4.832 4.832 0 0 0-4.121.407 4.849 4.849 0 0 0-2.301 3.443 4.84 4.84 0 0 0 1.202 3.963 4.85 4.85 0 0 0 1.735 1.223zm-3.422-9.752a7.456 7.456 0 0 1 8.133-1.618 7.456 7.456 0 0 1 4.038 4.039 7.466 7.466 0 0 1-1.617 8.133 7.462 7.462 0 1 1-10.552-10.552zm14.393-1.074a1.76 1.76 0 0 0 .553-1.258 1.768 1.768 0 0 0-.516-1.273 1.758 1.758 0 0 0-1.273-.516 1.758 1.758 0 0 0-1.258.553 1.763 1.763 0 0 0 .036 2.459 1.765 1.765 0 0 0 2.459.036z"/>
    </symbol>
    <symbol id="icon-arrow" viewBox="0 0 50 32">
      <path d="M.696 16a1.74 1.74 0 0 1 1.739-1.739h41.019L32.508 3.318A1.74 1.74 0 0 1 33.739.346c.461 0 .905.183 1.231.51l13.913 13.913a1.756 1.756 0 0 1 .511 1.232 1.737 1.737 0 0 1-.511 1.232L34.97 31.146a1.741 1.741 0 1 1-2.462-2.462l10.946-10.943H2.435a1.74 1.74 0 0 1-1.739-1.739z"/>
    </symbol>
    <symbol id="icon-circle" viewBox="0 0 32 32">
      <path d="M32 16c0 8.837-7.163 16-16 16S0 24.837 0 16 7.163 0 16 0s16 7.163 16 16z"/>
    </symbol>
    <symbol id="icon-airplane" viewBox="0 0 65 65">
      <path d="M56.875 54.844a2.031 2.031 0 0 1-2.031 2.031H18.28a2.031 2.031 0 0 1 0-4.063h36.563a2.03 2.03 0 0 1 2.031 2.032Zm6.094-20.313v6.094a2.031 2.031 0 0 1-2.032 2.031H16.2a10.106 10.106 0 0 1-9.724-7.236l-3.58-11.908a4.138 4.138 0 0 1 .634-3.606 4.113 4.113 0 0 1 3.276-1.625h4.367a2.004 2.004 0 0 1 1.549.737l4.468 5.357h4.368l-2.285-6.83a4.063 4.063 0 0 1 3.859-5.358h4.29a2.006 2.006 0 0 1 1.499.66l10.562 11.528h13.33A10.156 10.156 0 0 1 62.97 34.531Zm-4.063 0a6.119 6.119 0 0 0-6.093-6.093h-14.22a2.005 2.005 0 0 1-1.497-.66L26.533 16.25h-3.402l3.174 9.521a2.057 2.057 0 0 1-.28 1.829 2.005 2.005 0 0 1-1.65.837H16.25a2.004 2.004 0 0 1-1.549-.736l-4.469-5.357H6.78l3.58 11.908a6.067 6.067 0 0 0 5.84 4.342h42.707V34.53Z"/>
    </symbol>
    <symbol id="icon-bike" viewBox="0 0 50 50">
      <path d="M10.417 42.708a7.292 7.292 0 1 1 0-14.583 7.292 7.292 0 0 1 0 14.583Zm0-17.708a10.417 10.417 0 1 0 0 20.833 10.417 10.417 0 0 0 0-20.833Zm20.416-4.167h8.75v-3.75h-6.666l-4.042-6.812c-.604-1.042-1.792-1.73-3.042-1.73-.979 0-1.875.396-2.5 1.042l-7.708 7.688a3.452 3.452 0 0 0-1.042 2.52c0 1.313.688 2.417 1.771 3.063l6.98 4.23V37.5h3.75V23.958l-4.688-3.437 4.833-4.896 3.604 5.208Zm8.75 21.875a7.292 7.292 0 1 1 0-14.584 7.292 7.292 0 0 1 0 14.584Zm0-17.708a10.417 10.417 0 1 0 0 20.834 10.417 10.417 0 0 0 0-20.834Zm-6.25-15a3.734 3.734 0 0 0 3.75-3.75 3.734 3.734 0 0 0-3.75-3.75 3.734 3.734 0 0 0-3.75 3.75 3.734 3.734 0 0 0 3.75 3.75Z"/>
    </symbol>
    <symbol id="icon-calendar" viewBox="0 0 70 70">
      <path d="M22.604 37.917a3.646 3.646 0 1 0 0-7.292 3.646 3.646 0 0 0 0 7.292Zm16.042-3.646a3.646 3.646 0 1 1-7.292 0 3.646 3.646 0 0 1 7.292 0Zm8.75 3.646a3.645 3.645 0 1 0 0-7.291 3.645 3.645 0 0 0 0 7.29Zm-21.146 8.02a3.646 3.646 0 1 1-7.292 0 3.646 3.646 0 0 1 7.292 0ZM35 49.584a3.646 3.646 0 1 0 0-7.292 3.646 3.646 0 0 0 0 7.292ZM8.75 17.865a9.114 9.114 0 0 1 9.115-9.115h34.27a9.114 9.114 0 0 1 9.115 9.115v34.27a9.115 9.115 0 0 1-9.115 9.115h-34.27a9.115 9.115 0 0 1-9.115-9.115v-34.27Zm9.115-5.47a5.469 5.469 0 0 0-5.47 5.47v2.552h45.21v-2.552a5.469 5.469 0 0 0-5.47-5.47h-34.27Zm-5.47 39.74a5.469 5.469 0 0 0 5.47 5.47h34.27a5.469 5.469 0 0 0 5.47-5.47V24.063h-45.21v28.072Z"/>
    </symbol>
    <symbol id="icon-logo" viewBox="0 0 32 32">
      <path d="M2.764 8.355c.258-.328.598-.772.87-1.089.815-.875.92-.989 1.662-1.636.22-.171.481-.376.736-.569-1.882 1.507-2.121 3.175-.395 4.205-.003 0-.003 0-.003.003 2.414 1.376 7.706 1.079 11.881-.684 4.044-1.707 5.537-4.148 3.541-5.599-1.752-.311-3.841-.347-6.051-.067l-.23-.359.19-.595c1.3-.111 2.534-.084 3.6.088.258.041.598.112.851.163.491.113.757.181 1.077.279.327.092.606.184 1.092.355.476.177.682.257 1.064.437.428.185.843.393 1.245.625 3.18 1.892 1.202 5.344-4.409 7.709-5.596 2.357-12.726 2.728-15.922.859-.001-.003-.006-.005-.014-.008h.006c-1.745-1.045-1.928-2.563-.791-4.117zm14.559 13.226-.045-2.125-1.597-1.68c-5.276 1.131-10.461.888-13.345-.719-.01-.011-.034-.021-.044-.032C.66 16.074.257 14.848.379 13.514c-.382 1.951-.413 2.655-.358 4.324.068 1.045.706 2.009 1.99 2.769l.01.011c3.074 1.808 9.479 2.2 15.302.963zm6.66 2.434c-7.446 2.825-16.766 2.992-20.814.377a10.788 10.788 0 0 0 1.765 2.797c3.715 2.4 12.27 2.247 19.102-.347 3.999-1.516 6.522-3.533 7.184-5.424l.186-.569c.441-1.443.524-2.644.595-3.713-.08 2.321-2.971 4.961-8.017 6.879zM7.545 29.456c.234.211.97 1.065 4.698 2.009 1.008.211 3.545.887 8.232-.096l.028-.404-.371-.549c-4.348.973-9.179.648-12.587-.96zm10.76-16.812 3.959 2.839s.847.577.048.983c-.796.401-2.842 1.384-2.842 1.384l-2.02-.713-1.013.427 1.787 1.468.014 2.284 1.05-.441.696-1.929s2.138-.779 2.987-1.072c.853-.287.739.695.739.695l-.42 4.681 1.395-.587 2.297-6.316s1.218-.56 2.075-1.052c.856-.492 1.149-1.308 1.149-1.308s-.834-.34-1.796-.067c-.961.271-2.214.753-2.214.753l-6.501-2.612-1.391.584zM9.928 3.663l2.688 2.025.734-.104-1.463-1.817s-.319-.376.11-.465c.431-.091 1.522-.301 1.522-.301l.82.62.553-.077-.626-.941.33-1.044-.534.073-.633.795s-1.111.099-1.548.133c-.44.032-.251-.415-.251-.415l.843-2.144-.739.103-1.945 2.679s-.648.112-1.118.239c-.471.125-.719.469-.719.469s.345.264.832.255c.491-.009 1.143-.081 1.143-.081zm13.285 26.024-1.739-.86-.4.132 1.03.872s.22.177-.011.272c-.231.093-.82.323-.82.323l-.486-.205-.289.099.405.408-.039.596.302-.099.226-.484s.612-.172.856-.233c.242-.063.187.207.187.207l-.23 1.287.402-.132.788-1.701s.348-.129.598-.248.348-.337.348-.337-.221-.115-.495-.057c-.275.055-.63.163-.63.163z"/>
    </symbol>
  </defs>
</svg>
