<svg xmlns="http://www.w3.org/2000/svg" aria-hidden="true" overflow="hidden" style="position:absolute;width:0;height:0">
  <defs>
    <symbol id="icon-twitter" viewBox="0 0 32 32">
      <path d="M31.493 6.516a12.319 12.319 0 0 1-3.53.967 6.164 6.164 0 0 0 2.703-3.402 12.253 12.253 0 0 1-3.904 1.491 6.154 6.154 0 0 0-10.094 1.672 6.15 6.15 0 0 0-.383 3.937A17.457 17.457 0 0 1 3.613 4.756a6.144 6.144 0 0 0-.831 3.091 6.148 6.148 0 0 0 2.735 5.118 6.142 6.142 0 0 1-2.785-.769v.079a6.151 6.151 0 0 0 4.932 6.029 6.19 6.19 0 0 1-2.777.105 6.149 6.149 0 0 0 5.743 4.268 12.335 12.335 0 0 1-7.636 2.633c-.49 0-.98-.029-1.468-.086a17.384 17.384 0 0 0 9.423 2.762c11.31 0 17.493-9.368 17.493-17.492 0-.264-.007-.531-.018-.795a12.497 12.497 0 0 0 3.066-3.181l.003-.004z"/>
    </symbol>
    <symbol id="icon-youtube" viewBox="0 0 24 24">
      <path d="M23.498 6.186a3.016 3.016 0 0 0-2.122-2.136C19.505 3.545 12 3.545 12 3.545s-7.505 0-9.377.505A3.017 3.017 0 0 0 .502 6.186C0 8.07 0 12 0 12s0 3.93.502 5.814a3.016 3.016 0 0 0 2.122 2.136c1.871.505 9.376.505 9.376.505s7.505 0 9.377-.505a3.015 3.015 0 0 0 2.122-2.136C24 15.93 24 12 24 12s0-3.93-.502-5.814zM9.545 15.568V8.432L15.818 12l-6.273 3.568z"/>
    </symbol>
    <symbol id="icon-instagram" viewBox="0 0 32 32">
      <path d="M9.852 1.407c1.548-.071 2.042-.087 5.985-.087s4.437.017 5.984.087c1.547.07 2.603.317 3.526.674a7.153 7.153 0 0 1 2.571 1.676 7.09 7.09 0 0 1 1.673 2.57c.359.924.604 1.98.676 3.524.071 1.551.087 2.044.087 5.986 0 3.943-.017 4.437-.087 5.985-.07 1.544-.317 2.6-.676 3.524a7.11 7.11 0 0 1-1.673 2.572 7.135 7.135 0 0 1-2.571 1.674c-.924.359-1.98.604-3.524.676-1.549.071-2.043.087-5.986.087s-4.437-.017-5.985-.087c-1.544-.07-2.6-.317-3.524-.676a7.1 7.1 0 0 1-2.572-1.674 7.112 7.112 0 0 1-1.675-2.571c-.358-.924-.603-1.98-.674-3.524-.071-1.551-.087-2.044-.087-5.986 0-3.943.017-4.437.087-5.984s.317-2.603.674-3.526a7.115 7.115 0 0 1 1.676-2.571 7.121 7.121 0 0 1 2.57-1.675c.924-.358 1.98-.603 3.524-.674h.001zM21.704 4.02c-1.531-.07-1.99-.084-5.866-.084s-4.335.014-5.866.084c-1.416.065-2.184.301-2.696.5a4.52 4.52 0 0 0-1.67 1.085 4.506 4.506 0 0 0-1.085 1.67c-.199.512-.436 1.28-.5 2.696-.07 1.531-.084 1.99-.084 5.866s.014 4.335.084 5.866c.065 1.416.301 2.184.5 2.696a4.498 4.498 0 0 0 1.085 1.669c.469.482 1.04.853 1.67 1.085.512.199 1.28.436 2.696.5 1.531.07 1.989.084 5.866.084s4.335-.015 5.866-.084c1.416-.065 2.184-.301 2.696-.5a4.508 4.508 0 0 0 1.669-1.085 4.506 4.506 0 0 0 1.085-1.669c.199-.512.435-1.28.5-2.696.07-1.531.085-1.99.085-5.866s-.015-4.335-.085-5.866c-.065-1.416-.301-2.184-.5-2.696a4.52 4.52 0 0 0-1.085-1.67A4.51 4.51 0 0 0 24.4 4.52c-.512-.199-1.28-.436-2.696-.5zm-7.721 16.293a4.846 4.846 0 0 0 5.887-1.78 4.846 4.846 0 0 0-2.401-7.255 4.832 4.832 0 0 0-4.121.407 4.849 4.849 0 0 0-2.301 3.443 4.84 4.84 0 0 0 1.202 3.963 4.85 4.85 0 0 0 1.735 1.223zm-3.422-9.752a7.456 7.456 0 0 1 8.133-1.618 7.456 7.456 0 0 1 4.038 4.039 7.466 7.466 0 0 1-1.617 8.133 7.462 7.462 0 1 1-10.552-10.552zm14.393-1.074a1.76 1.76 0 0 0 .553-1.258 1.768 1.768 0 0 0-.516-1.273 1.758 1.758 0 0 0-1.273-.516 1.758 1.758 0 0 0-1.258.553 1.763 1.763 0 0 0 .036 2.459 1.765 1.765 0 0 0 2.459.036z"/>
    </symbol>
    <symbol id="icon-arrow" viewBox="0 0 36 23">
      <path fill-rule="evenodd" d="M.5 11.5a1.25 1.25 0 0 1 1.25-1.25h29.483l-7.868-7.865a1.252 1.252 0 0 1 1.77-1.77l10 10a1.25 1.25 0 0 1 0 1.77l-10 10a1.252 1.252 0 0 1-1.77-1.77l7.868-7.865H1.75A1.25 1.25 0 0 1 .5 11.5Z" clip-rule="evenodd"/>
    </symbol>
    <symbol id="icon-circle" viewBox="0 0 32 32">
      <path d="M32 16c0 8.837-7.163 16-16 16S0 24.837 0 16 7.163 0 16 0s16 7.163 16 16z"/>
    </symbol>
    <symbol id="icon-airplane" viewBox="0 0 40 40">
      <path d="M35.954 33.636c0 .362-.142.709-.395.965a1.344 1.344 0 0 1-.954.399H10.327c-.358 0-.701-.144-.954-.399a1.373 1.373 0 0 1 0-1.929 1.34 1.34 0 0 1 .954-.399h24.278c.358 0 .701.143.954.399s.395.603.395.964ZM40 20v4.091c0 .362-.142.708-.395.964s-.596.4-.954.4H8.944a6.664 6.664 0 0 1-4.029-1.342 6.788 6.788 0 0 1-2.428-3.516L.11 12.602a2.81 2.81 0 0 1 .421-2.42 2.74 2.74 0 0 1 .961-.803 2.7 2.7 0 0 1 1.214-.288h2.9a1.317 1.317 0 0 1 1.029.494l2.967 3.597h2.9l-1.517-4.585a2.753 2.753 0 0 1 .368-2.464A2.677 2.677 0 0 1 13.547 5h2.849a1.329 1.329 0 0 1 .995.443l7.014 7.739h8.851c1.789 0 3.504.718 4.769 1.997A6.86 6.86 0 0 1 40 20Zm-2.698 0a4.13 4.13 0 0 0-1.19-2.888 4.041 4.041 0 0 0-2.856-1.203h-9.441a1.32 1.32 0 0 1-.995-.443l-7.014-7.739h-2.259l2.108 6.392a1.399 1.399 0 0 1-.186 1.228 1.337 1.337 0 0 1-1.096.562H8.978a1.32 1.32 0 0 1-1.028-.494l-2.968-3.597H2.69l2.377 7.995a4.073 4.073 0 0 0 1.459 2.11 3.995 3.995 0 0 0 2.418.804h28.358V20Z"/>
    </symbol>
    <symbol id="icon-bike" viewBox="0 0 40 40">
      <path d="M9.792 33.228a5.012 5.012 0 0 1-3.61-1.552 5.405 5.405 0 0 1-1.494-3.748c0-1.406.537-2.754 1.494-3.748a5.013 5.013 0 0 1 3.61-1.553c1.353 0 2.652.559 3.609 1.553a5.406 5.406 0 0 1 1.495 3.748 5.406 5.406 0 0 1-1.495 3.748 5.01 5.01 0 0 1-3.609 1.552Zm0-12.872a7.157 7.157 0 0 0-5.156 2.218A7.72 7.72 0 0 0 2.5 27.928a7.72 7.72 0 0 0 2.136 5.354A7.157 7.157 0 0 0 9.792 35.5c1.934 0 3.788-.798 5.156-2.218a7.723 7.723 0 0 0 2.135-5.354 7.723 7.723 0 0 0-2.135-5.354c-1.368-1.42-3.222-2.218-5.156-2.218Zm14.291-3.029h6.125v-2.726h-4.666l-2.83-4.952a2.475 2.475 0 0 0-2.129-1.257c-.685 0-1.312.288-1.75.757l-5.395 5.588a2.558 2.558 0 0 0-.73 1.833c0 .954.482 1.756 1.24 2.226l4.885 3.074v7.572h2.625v-9.843L18.177 17.1l3.383-3.559 2.523 3.786Zm6.125 15.901a5.01 5.01 0 0 1-3.609-1.552 5.406 5.406 0 0 1-1.495-3.748c0-1.406.538-2.754 1.495-3.748a5.011 5.011 0 0 1 3.609-1.553c1.354 0 2.652.559 3.61 1.553a5.406 5.406 0 0 1 1.495 3.748 5.406 5.406 0 0 1-1.495 3.748 5.012 5.012 0 0 1-3.61 1.552Zm0-12.872c-1.933 0-3.788.798-5.156 2.218a7.723 7.723 0 0 0-2.135 5.354c0 2.008.768 3.934 2.135 5.354 1.368 1.42 3.223 2.218 5.156 2.218a7.07 7.07 0 0 0 2.791-.576 7.294 7.294 0 0 0 2.365-1.642 7.597 7.597 0 0 0 1.581-2.456 7.839 7.839 0 0 0 0-5.796 7.597 7.597 0 0 0-1.581-2.456 7.294 7.294 0 0 0-2.365-1.642 7.07 7.07 0 0 0-2.791-.576ZM25.833 9.452c1.459 0 2.625-1.212 2.625-2.726S27.292 4 25.833 4c-1.458 0-2.625 1.212-2.625 2.726s1.167 2.726 2.625 2.726Z"/>
    </symbol>
    <symbol id="icon-calendar" viewBox="0 0 40 40">
      <path d="M11.736 21.944a2.43 2.43 0 1 0 .001-4.86 2.43 2.43 0 0 0-.001 4.86Zm10.695-2.43c0 .645-.257 1.263-.712 1.719a2.434 2.434 0 0 1-3.438 0 2.435 2.435 0 0 1 0-3.438 2.43 2.43 0 0 1 4.15 1.719Zm5.833 2.43c.645 0 1.263-.256 1.719-.711a2.434 2.434 0 0 0 0-3.438 2.43 2.43 0 1 0-1.719 4.149Zm-14.097 5.348a2.428 2.428 0 0 1-2.431 2.43 2.43 2.43 0 1 1 2.431-2.43ZM20 29.722a2.43 2.43 0 1 0 0-4.86 2.43 2.43 0 0 0 0 4.86ZM2.5 8.576A6.073 6.073 0 0 1 8.576 2.5h22.848A6.073 6.073 0 0 1 37.5 8.576v22.848a6.073 6.073 0 0 1-6.076 6.076H8.576A6.073 6.073 0 0 1 2.5 31.424V8.576Zm6.076-3.645c-.967 0-1.894.384-2.578 1.067a3.648 3.648 0 0 0-1.067 2.578v1.702h30.138V8.576c0-.967-.384-1.894-1.067-2.578a3.648 3.648 0 0 0-2.578-1.067H8.576ZM4.931 31.424c0 .967.384 1.894 1.067 2.578a3.648 3.648 0 0 0 2.578 1.067h22.848c.967 0 1.894-.384 2.578-1.067a3.648 3.648 0 0 0 1.067-2.578V12.708H4.931v18.716Z"/>
    </symbol>
    <symbol id="icon-logo" viewBox="0 0 32 32">
      <path d="M2.764 8.355c.258-.328.598-.772.87-1.089.815-.875.92-.989 1.662-1.636.22-.171.481-.376.736-.569-1.882 1.507-2.121 3.175-.395 4.205-.003 0-.003 0-.003.003 2.414 1.376 7.706 1.079 11.881-.684 4.044-1.707 5.537-4.148 3.541-5.599-1.752-.311-3.841-.347-6.051-.067l-.23-.359.19-.595c1.3-.111 2.534-.084 3.6.088.258.041.598.112.851.163.491.113.757.181 1.077.279.327.092.606.184 1.092.355.476.177.682.257 1.064.437.428.185.843.393 1.245.625 3.18 1.892 1.202 5.344-4.409 7.709-5.596 2.357-12.726 2.728-15.922.859-.001-.003-.006-.005-.014-.008h.006c-1.745-1.045-1.928-2.563-.791-4.117zm14.559 13.226-.045-2.125-1.597-1.68c-5.276 1.131-10.461.888-13.345-.719-.01-.011-.034-.021-.044-.032C.66 16.074.257 14.848.379 13.514c-.382 1.951-.413 2.655-.358 4.324.068 1.045.706 2.009 1.99 2.769l.01.011c3.074 1.808 9.479 2.2 15.302.963zm6.66 2.434c-7.446 2.825-16.766 2.992-20.814.377a10.788 10.788 0 0 0 1.765 2.797c3.715 2.4 12.27 2.247 19.102-.347 3.999-1.516 6.522-3.533 7.184-5.424l.186-.569c.441-1.443.524-2.644.595-3.713-.08 2.321-2.971 4.961-8.017 6.879zM7.545 29.456c.234.211.97 1.065 4.698 2.009 1.008.211 3.545.887 8.232-.096l.028-.404-.371-.549c-4.348.973-9.179.648-12.587-.96zm10.76-16.812 3.959 2.839s.847.577.048.983c-.796.401-2.842 1.384-2.842 1.384l-2.02-.713-1.013.427 1.787 1.468.014 2.284 1.05-.441.696-1.929s2.138-.779 2.987-1.072c.853-.287.739.695.739.695l-.42 4.681 1.395-.587 2.297-6.316s1.218-.56 2.075-1.052c.856-.492 1.149-1.308 1.149-1.308s-.834-.34-1.796-.067c-.961.271-2.214.753-2.214.753l-6.501-2.612-1.391.584zM9.928 3.663l2.688 2.025.734-.104-1.463-1.817s-.319-.376.11-.465c.431-.091 1.522-.301 1.522-.301l.82.62.553-.077-.626-.941.33-1.044-.534.073-.633.795s-1.111.099-1.548.133c-.44.032-.251-.415-.251-.415l.843-2.144-.739.103-1.945 2.679s-.648.112-1.118.239c-.471.125-.719.469-.719.469s.345.264.832.255c.491-.009 1.143-.081 1.143-.081zm13.285 26.024-1.739-.86-.4.132 1.03.872s.22.177-.011.272c-.231.093-.82.323-.82.323l-.486-.205-.289.099.405.408-.039.596.302-.099.226-.484s.612-.172.856-.233c.242-.063.187.207.187.207l-.23 1.287.402-.132.788-1.701s.348-.129.598-.248.348-.337.348-.337-.221-.115-.495-.057c-.275.055-.63.163-.63.163z"/>
    </symbol>
    <symbol id="icon-burger" viewBox="0 0 35 32">
      <path d="M29.24 14.667H5.76c-.765 0-1.385.567-1.385 1.266v.134c0 .7.62 1.266 1.385 1.266h23.48c.765 0 1.385-.567 1.385-1.266v-.134c0-.7-.62-1.266-1.385-1.266ZM29.24 21.333H5.76c-.765 0-1.385.567-1.385 1.267v.133c0 .7.62 1.267 1.385 1.267h23.48c.765 0 1.385-.567 1.385-1.267V22.6c0-.7-.62-1.267-1.385-1.267ZM29.24 8H5.76c-.765 0-1.385.567-1.385 1.267V9.4c0 .7.62 1.267 1.385 1.267h23.48c.765 0 1.385-.567 1.385-1.267v-.133c0-.7-.62-1.267-1.385-1.267Z"/>
    </symbol>
    <symbol id="icon-close" viewBox="0 0 16 16">
      <path d="m9.175 8 6.075-6.075A.833.833 0 0 0 14.075.75L8 6.825 1.925.742A.833.833 0 0 0 .75 1.917L6.825 8 .742 14.075a.833.833 0 1 0 1.175 1.175L8 9.175l6.075 6.075a.833.833 0 0 0 1.175-1.175L9.175 8Z"/>
    </symbol>
    <symbol id="icon-prev" viewBox="0 0 32 32">
      <path d="M20.076 26.933a1.875 1.875 0 0 0 0-2.652L10.794 15l9.282-9.281a1.875 1.875 0 0 0-2.652-2.652L6.818 13.674a1.875 1.875 0 0 0 0 2.652l10.606 10.607a1.875 1.875 0 0 0 2.652 0Z"/>
    </symbol>
    <symbol id="icon-next" viewBox="0 0 32 32">
      <path d="M9.924 3.067a1.875 1.875 0 0 0 0 2.652L19.206 15l-9.282 9.281a1.875 1.875 0 0 0 2.652 2.652l10.607-10.607a1.875 1.875 0 0 0 0-2.652L12.576 3.068a1.875 1.875 0 0 0-2.652 0Z"/>
    </symbol>
  </defs>
</svg>
