<svg xmlns="http://www.w3.org/2000/svg" aria-hidden="true" overflow="hidden" style="position:absolute;width:0;height:0">
  <defs>
    <symbol id="edit" viewBox="0 0 50 50">
      <path d="M 46.574219 3.425781 C 45.625 2.476563 44.378906 2 43.132813 2 C 41.886719 2 40.640625 2.476563 39.691406 3.425781 C 39.691406 3.425781 39.621094 3.492188 39.53125 3.585938 C 39.523438 3.59375 39.511719 3.597656 39.503906 3.605469 L 4.300781 38.804688 C 4.179688 38.929688 4.089844 39.082031 4.042969 39.253906 L 2.035156 46.742188 C 1.941406 47.085938 2.039063 47.453125 2.292969 47.707031 C 2.484375 47.898438 2.738281 48 3 48 C 3.085938 48 3.171875 47.988281 3.257813 47.964844 L 10.746094 45.957031 C 10.917969 45.910156 11.070313 45.820313 11.195313 45.695313 L 46.394531 10.5 C 46.40625 10.488281 46.410156 10.472656 46.417969 10.460938 C 46.507813 10.371094 46.570313 10.308594 46.570313 10.308594 C 48.476563 8.40625 48.476563 5.324219 46.574219 3.425781 Z M 45.160156 4.839844 C 46.277344 5.957031 46.277344 7.777344 45.160156 8.894531 C 44.828125 9.222656 44.546875 9.507813 44.304688 9.75 L 40.25 5.695313 C 40.710938 5.234375 41.105469 4.839844 41.105469 4.839844 C 41.644531 4.296875 42.367188 4 43.132813 4 C 43.898438 4 44.617188 4.300781 45.160156 4.839844 Z M 5.605469 41.152344 L 8.847656 44.394531 L 4.414063 45.585938 Z"></path>
    </symbol>
    <symbol id="settings" viewBox="0 0 50 50">
      <path d="M47.16,21.221l-5.91-0.966c-0.346-1.186-0.819-2.326-1.411-3.405l3.45-4.917c0.279-0.397,0.231-0.938-0.112-1.282 l-3.889-3.887c-0.347-0.346-0.893-0.391-1.291-0.104l-4.843,3.481c-1.089-0.602-2.239-1.08-3.432-1.427l-1.031-5.886 C28.607,2.35,28.192,2,27.706,2h-5.5c-0.49,0-0.908,0.355-0.987,0.839l-0.956,5.854c-1.2,0.345-2.352,0.818-3.437,1.412l-4.83-3.45 c-0.399-0.285-0.942-0.239-1.289,0.106L6.82,10.648c-0.343,0.343-0.391,0.883-0.112,1.28l3.399,4.863 c-0.605,1.095-1.087,2.254-1.438,3.46l-5.831,0.971c-0.482,0.08-0.836,0.498-0.836,0.986v5.5c0,0.485,0.348,0.9,0.825,0.985 l5.831,1.034c0.349,1.203,0.831,2.362,1.438,3.46l-3.441,4.813c-0.284,0.397-0.239,0.942,0.106,1.289l3.888,3.891 c0.343,0.343,0.884,0.391,1.281,0.112l4.87-3.411c1.093,0.601,2.248,1.078,3.445,1.424l0.976,5.861C21.3,47.647,21.717,48,22.206,48 h5.5c0.485,0,0.9-0.348,0.984-0.825l1.045-5.89c1.199-0.353,2.348-0.833,3.43-1.435l4.905,3.441 c0.398,0.281,0.938,0.232,1.282-0.111l3.888-3.891c0.346-0.347,0.391-0.894,0.104-1.292l-3.498-4.857 c0.593-1.08,1.064-2.222,1.407-3.408l5.918-1.039c0.479-0.084,0.827-0.5,0.827-0.985v-5.5C47.999,21.718,47.644,21.3,47.16,21.221z M25,32c-3.866,0-7-3.134-7-7c0-3.866,3.134-7,7-7s7,3.134,7,7C32,28.866,28.866,32,25,32z"></path>
    </symbol>
    <symbol id="next" viewBox="0 0 319 512">
      <path d="M48.92 505.72 5.88 462.68c-7.85-7.85-7.83-20.72 0-28.54l178.35-178.35L5.88 77.44c-7.85-7.85-7.8-20.73 0-28.54L48.92 5.87c7.83-7.82 20.71-7.82 28.54 0l192.25 192.26.37.36 43.04 43.03c7.82 7.84 7.86 20.69 0 28.54l-43.04 43.04-.37.36L77.46 505.72c-7.85 7.86-20.68 7.86-28.54 0z"/></path>
    </symbol>
    <symbol id="reload" viewBox="0 0 50 50">
      <path d="M 25 5 C 14.351563 5 5.632813 13.378906 5.054688 23.890625 C 5.007813 24.609375 5.347656 25.296875 5.949219 25.695313 C 6.550781 26.089844 7.320313 26.132813 7.960938 25.804688 C 8.601563 25.476563 9.019531 24.828125 9.046875 24.109375 C 9.511719 15.675781 16.441406 9 25 9 C 29.585938 9 33.699219 10.925781 36.609375 14 L 34 14 C 33.277344 13.988281 32.609375 14.367188 32.246094 14.992188 C 31.878906 15.613281 31.878906 16.386719 32.246094 17.007813 C 32.609375 17.632813 33.277344 18.011719 34 18 L 40.261719 18 C 40.488281 18.039063 40.71875 18.039063 40.949219 18 L 44 18 L 44 8 C 44.007813 7.460938 43.796875 6.941406 43.414063 6.558594 C 43.03125 6.175781 42.511719 5.964844 41.96875 5.972656 C 40.867188 5.988281 39.984375 6.894531 40 8 L 40 11.777344 C 36.332031 7.621094 30.964844 5 25 5 Z M 43.03125 23.972656 C 41.925781 23.925781 40.996094 24.785156 40.953125 25.890625 C 40.488281 34.324219 33.558594 41 25 41 C 20.414063 41 16.304688 39.074219 13.390625 36 L 16 36 C 16.722656 36.011719 17.390625 35.632813 17.753906 35.007813 C 18.121094 34.386719 18.121094 33.613281 17.753906 32.992188 C 17.390625 32.367188 16.722656 31.988281 16 32 L 9.71875 32 C 9.507813 31.96875 9.296875 31.96875 9.085938 32 L 6 32 L 6 42 C 5.988281 42.722656 6.367188 43.390625 6.992188 43.753906 C 7.613281 44.121094 8.386719 44.121094 9.007813 43.753906 C 9.632813 43.390625 10.011719 42.722656 10 42 L 10 38.222656 C 13.667969 42.378906 19.035156 45 25 45 C 35.648438 45 44.367188 36.621094 44.945313 26.109375 C 44.984375 25.570313 44.800781 25.039063 44.441406 24.636719 C 44.078125 24.234375 43.570313 23.996094 43.03125 23.972656 Z"></path>
    </symbol>
  </defs>
</svg>
