<svg xmlns="http://www.w3.org/2000/svg" aria-hidden="true" overflow="hidden" style="position:absolute;width:0;height:0">
  <defs>
    <symbol id="settings" viewBox="0 0 50 50">
      <path d="M47.16,21.221l-5.91-0.966c-0.346-1.186-0.819-2.326-1.411-3.405l3.45-4.917c0.279-0.397,0.231-0.938-0.112-1.282 l-3.889-3.887c-0.347-0.346-0.893-0.391-1.291-0.104l-4.843,3.481c-1.089-0.602-2.239-1.08-3.432-1.427l-1.031-5.886 C28.607,2.35,28.192,2,27.706,2h-5.5c-0.49,0-0.908,0.355-0.987,0.839l-0.956,5.854c-1.2,0.345-2.352,0.818-3.437,1.412l-4.83-3.45 c-0.399-0.285-0.942-0.239-1.289,0.106L6.82,10.648c-0.343,0.343-0.391,0.883-0.112,1.28l3.399,4.863 c-0.605,1.095-1.087,2.254-1.438,3.46l-5.831,0.971c-0.482,0.08-0.836,0.498-0.836,0.986v5.5c0,0.485,0.348,0.9,0.825,0.985 l5.831,1.034c0.349,1.203,0.831,2.362,1.438,3.46l-3.441,4.813c-0.284,0.397-0.239,0.942,0.106,1.289l3.888,3.891 c0.343,0.343,0.884,0.391,1.281,0.112l4.87-3.411c1.093,0.601,2.248,1.078,3.445,1.424l0.976,5.861C21.3,47.647,21.717,48,22.206,48 h5.5c0.485,0,0.9-0.348,0.984-0.825l1.045-5.89c1.199-0.353,2.348-0.833,3.43-1.435l4.905,3.441 c0.398,0.281,0.938,0.232,1.282-0.111l3.888-3.891c0.346-0.347,0.391-0.894,0.104-1.292l-3.498-4.857 c0.593-1.08,1.064-2.222,1.407-3.408l5.918-1.039c0.479-0.084,0.827-0.5,0.827-0.985v-5.5C47.999,21.718,47.644,21.3,47.16,21.221z M25,32c-3.866,0-7-3.134-7-7c0-3.866,3.134-7,7-7s7,3.134,7,7C32,28.866,28.866,32,25,32z"></path>
    </symbol>
    <symbol id="bg-prev" viewBox="0 0 24 24">
      <path d="M14.91,6.71 C14.52,6.32 13.89,6.32 13.5,6.71 L8.91,11.3 C8.52,11.69 8.52,12.32 8.91,12.71 L13.5,17.3 C13.89,17.69 14.52,17.69 14.91,17.3 C15.3,16.91 15.3,16.28 14.91,15.89 L11.03,12 L14.91,8.12 C15.29,7.73 15.29,7.09 14.91,6.71 Z" ></path>
    </symbol>
    <symbol id="bg-next" viewBox="0 0 24 24">
      <path d="M9.31,6.71 C8.92,7.1 8.92,7.73 9.31,8.12 L13.19,12 L9.31,15.88 C8.92,16.27 8.92,16.9 9.31,17.29 C9.7,17.68 10.33,17.68 10.72,17.29 L15.31,12.7 C15.7,12.31 15.7,11.68 15.31,11.29 L10.72,6.7 C10.34,6.32 9.7,6.32 9.31,6.71 Z" ></path>
    </symbol>
    <symbol id="repeat" viewBox="0 0 24 24">
      <path d="M7,7 L17,7 L17,8.79 C17,9.24 17.54,9.46 17.85,9.14 L20.64,6.35 C20.84,6.15 20.84,5.84 20.64,5.64 L17.85,2.85 C17.54,2.54 17,2.76 17,3.21 L17,5 L6,5 C5.45,5 5,5.45 5,6 L5,10 C5,10.55 5.45,11 6,11 C6.55,11 7,10.55 7,10 L7,7 Z M17,17 L7,17 L7,15.21 C7,14.76 6.46,14.54 6.15,14.86 L3.36,17.65 C3.16,17.85 3.16,18.16 3.36,18.36 L6.15,21.15 C6.46,21.46 7,21.24 7,20.79 L7,19 L18,19 C18.55,19 19,18.55 19,18 L19,14 C19,13.45 18.55,13 18,13 C17.45,13 17,13.45 17,14 L17,17 Z" ></path>
    </symbol>
    <symbol id="play" viewBox="0 0 24 24">
      <path d="M7,6.82 L7,17.18 C7,17.97 7.87,18.45 8.54,18.02 L16.68,12.84 C17.3,12.45 17.3,11.55 16.68,11.15 L8.54,5.98 C7.87,5.55 7,6.03 7,6.82 Z" ></path>
    </symbol>
    <symbol id="pause" viewBox="0 0 24 24">
      <path d="M8,19 C9.1,19 10,18.1 10,17 L10,7 C10,5.9 9.1,5 8,5 C6.9,5 6,5.9 6,7 L6,17 C6,18.1 6.9,19 8,19 Z M14,7 L14,17 C14,18.1 14.9,19 16,19 C17.1,19 18,18.1 18,17 L18,7 C18,5.9 17.1,5 16,5 C14.9,5 14,5.9 14,7 Z"></path>
    </symbol>
    <symbol id="play-prev" viewBox="0 0 24 24">
      <path d="M11,16.07 L11,7.93 C11,7.12 10.09,6.65 9.42,7.11 L3.65,11.18 C3.09,11.58 3.09,12.42 3.65,12.81 L9.42,16.88 C10.09,17.35 11,16.88 11,16.07 Z M12.66,12.82 L18.43,16.89 C19.09,17.36 20.01,16.88 20.01,16.07 L20.01,7.93 C20.01,7.12 19.1,6.65 18.43,7.11 L12.66,11.18 C12.09,11.58 12.09,12.42 12.66,12.82 Z" ></path>
    </symbol>
    <symbol id="play-next" viewBox="0 0 24 24">
      <path d="M5.58,16.89 L11.35,12.82 C11.91,12.42 11.91,11.58 11.35,11.19 L5.58,7.11 C4.91,6.65 4,7.12 4,7.93 L4,16.07 C4,16.88 4.91,17.35 5.58,16.89 Z M13,7.93 L13,16.07 C13,16.88 13.91,17.35 14.58,16.89 L20.35,12.82 C20.91,12.42 20.91,11.58 20.35,11.19 L14.58,7.12 C13.91,6.65 13,7.12 13,7.93 Z" ></path>
    </symbol>
    <symbol id="song" viewBox="0 0 24 24">
      <path d="M21,3 L3,3 C1.9,3 1,3.9 1,5 L1,19 C1,20.1 1.9,21 3,21 L21,21 C22.1,21 23,20.1 23,19 L23,5 C23,3.9 22.1,3 21,3 Z M20,19 L4,19 C3.45,19 3,18.55 3,18 L3,6 C3,5.45 3.45,5 4,5 L20,5 C20.55,5 21,5.45 21,6 L21,18 C21,18.55 20.55,19 20,19 Z M8.05,15.54 C7.72,13.64 9.16,12 11,12 C11.35,12 11.69,12.07 12,12.18 L12,8 C12,6.9 12.9,6 14,6 L16,6 C16.55,6 17,6.45 17,7 C17,7.55 16.55,8 16,8 L14,8 L14,15.03 C13.98,16.85 12.34,18.29 10.45,17.95 C9.24,17.74 8.25,16.75 8.05,15.54 Z" ></path>
    </symbol>
    <symbol id="mid-volume" viewBox="0 0 24 24">
      <path d="M18.5,12 C18.5,10.23 17.48,8.71 16,7.97 L16,16.02 C17.48,15.29 18.5,13.77 18.5,12 Z M5,10 L5,14 C5,14.55 5.45,15 6,15 L9,15 L12.29,18.29 C12.92,18.92 14,18.47 14,17.58 L14,6.41 C14,5.52 12.92,5.07 12.29,5.7 L9,9 L6,9 C5.45,9 5,9.45 5,10 Z" ></path>
    </symbol>
    <symbol id="low-volume" viewBox="0 0 24 24">
      <path d="M8,10 L8,14 C8,14.55 8.45,15 9,15 L12,15 L15.29,18.29 C15.92,18.92 17,18.47 17,17.58 L17,6.41 C17,5.52 15.92,5.07 15.29,5.7 L12,9 L9,9 C8.45,9 8,9.45 8,10 Z" ></path>
    </symbol>
    <symbol id="high-volume" viewBox="0 0 24 24">
      <path d="M3,10 L3,14 C3,14.55 3.45,15 4,15 L7,15 L10.29,18.29 C10.92,18.92 12,18.47 12,17.58 L12,6.41 C12,5.52 10.92,5.07 10.29,5.7 L7,9 L4,9 C3.45,9 3,9.45 3,10 Z M16.5,12 C16.5,10.23 15.48,8.71 14,7.97 L14,16.02 C15.48,15.29 16.5,13.77 16.5,12 Z M14,4.45 L14,4.65 C14,5.03 14.25,5.36 14.6,5.5 C17.18,6.53 19,9.06 19,12 C19,14.94 17.18,17.47 14.6,18.5 C14.24,18.64 14,18.97 14,19.35 L14,19.55 C14,20.18 14.63,20.62 15.21,20.4 C18.6,19.11 21,15.84 21,12 C21,8.16 18.6,4.89 15.21,3.6 C14.63,3.37 14,3.82 14,4.45 Z" ></path>
    </symbol>
    <symbol id="mute-volume" viewBox="0 0 24 24">
      <path d="M3.63,3.63 C3.24,4.02 3.24,4.65 3.63,5.04 L7.29,8.7 L7,9 L4,9 C3.45,9 3,9.45 3,10 L3,14 C3,14.55 3.45,15 4,15 L7,15 L10.29,18.29 C10.92,18.92 12,18.47 12,17.58 L12,13.41 L16.18,17.59 C15.69,17.96 15.16,18.27 14.58,18.5 C14.22,18.65 14,19.03 14,19.42 C14,20.14 14.73,20.6 15.39,20.33 C16.19,20 16.94,19.56 17.61,19.02 L18.95,20.36 C19.34,20.75 19.97,20.75 20.36,20.36 C20.75,19.97 20.75,19.34 20.36,18.95 L5.05,3.63 C4.66,3.24 4.03,3.24 3.63,3.63 Z M19,12 C19,12.82 18.85,13.61 18.59,14.34 L20.12,15.87 C20.68,14.7 21,13.39 21,12 C21,8.17 18.6,4.89 15.22,3.6 C14.63,3.37 14,3.83 14,4.46 L14,4.65 C14,5.03 14.25,5.36 14.61,5.5 C17.18,6.54 19,9.06 19,12 Z M10.29,5.71 L10.12,5.88 L12,7.76 L12,6.41 C12,5.52 10.92,5.08 10.29,5.71 Z M16.5,12 C16.5,10.23 15.48,8.71 14,7.97 L14,9.76 L16.48,12.24 C16.49,12.16 16.5,12.08 16.5,12 Z" ></path>
    </symbol>
  </defs>
</svg>
